<?xml version="1.0" encoding="UTF-8" standalone="no"?>
<!DOCTYPE svg PUBLIC "-//W3C//DTD SVG 1.1//EN"
 "http://www.w3.org/Graphics/SVG/1.1/DTD/svg11.dtd">
<!-- Generated by graphviz version 2.40.1 (20161225.0304)
 -->
<!-- Title: dependencies Pages: 1 -->
<svg width="633pt" height="349pt"
 viewBox="0.00 0.00 633.00 349.00" xmlns="http://www.w3.org/2000/svg" xmlns:xlink="http://www.w3.org/1999/xlink">
<g id="graph0" class="graph" transform="scale(1 1) rotate(0) translate(4 345)">
<title>dependencies</title>
<polygon fill="#ffffff" stroke="transparent" points="-4,4 -4,-345 629,-345 629,4 -4,4"/>
<text text-anchor="start" x="291.5091" y="-42.4" font-family="sans-serif" font-weight="bold" font-size="14.00" fill="#000000">Legend</text>
<polygon fill="#ffffb3" stroke="transparent" points="78.5,-10 78.5,-30 98.5,-30 98.5,-10 78.5,-10"/>
<text text-anchor="start" x="102.129" y="-15.4" font-family="sans-serif" font-size="14.00" fill="#000000"> &#160;Declarations</text>
<polygon fill="#8dd3c7" stroke="transparent" points="191.5,-10 191.5,-30 211.5,-30 211.5,-10 191.5,-10"/>
<text text-anchor="start" x="215.2251" y="-15.4" font-family="sans-serif" font-size="14.00" fill="#000000"> &#160;Module</text>
<polygon fill="#80b1d3" stroke="transparent" points="277.5,-10 277.5,-30 297.5,-30 297.5,-10 277.5,-10"/>
<text text-anchor="start" x="301.2812" y="-15.4" font-family="sans-serif" font-size="14.00" fill="#000000"> &#160;Bootstrap</text>
<polygon fill="#fdb462" stroke="transparent" points="374.5,-10 374.5,-30 394.5,-30 394.5,-10 374.5,-10"/>
<text text-anchor="start" x="398.1732" y="-15.4" font-family="sans-serif" font-size="14.00" fill="#000000"> &#160;Providers</text>
<polygon fill="#fb8072" stroke="transparent" points="470.5,-10 470.5,-30 490.5,-30 490.5,-10 470.5,-10"/>
<text text-anchor="start" x="494.2258" y="-15.4" font-family="sans-serif" font-size="14.00" fill="#000000"> &#160;Exports</text>
<g id="clust1" class="cluster">
<title>cluster_AppModule</title>
<polygon fill="none" stroke="#000000" stroke-dasharray="1,5" points="8,-70 8,-333 617,-333 617,-70 8,-70"/>
</g>
<g id="clust2" class="cluster">
<title>cluster_AppModule_declarations</title>
<polygon fill="none" stroke="#000000" points="16,-143 16,-195 609,-195 609,-143 16,-143"/>
</g>
<g id="clust4" class="cluster">
<title>cluster_AppModule_AppComponent_providers</title>
<polygon fill="none" stroke="#000000" points="156,-78 156,-130 524,-130 524,-78 156,-78"/>
</g>
<g id="clust9" class="cluster">
<title>cluster_AppModule_bootstrap</title>
<polygon fill="none" stroke="#000000" points="231,-273 231,-325 355,-325 355,-273 231,-273"/>
</g>
<!-- AdvertisementsComponent -->
<g id="node1" class="node">
<title>AdvertisementsComponent</title>
<polygon fill="#ffffb3" stroke="#000000" points="600.6951,-187 431.3049,-187 431.3049,-151 600.6951,-151 600.6951,-187"/>
<text text-anchor="middle" x="516" y="-164.8" font-family="Times,serif" font-size="14.00" fill="#000000">AdvertisementsComponent</text>
</g>
<!-- AppModule -->
<g id="node5" class="node">
<title>AppModule</title>
<polygon fill="#8dd3c7" stroke="#000000" points="334.6571,-252 331.6571,-256 310.6571,-256 307.6571,-252 251.3429,-252 251.3429,-216 334.6571,-216 334.6571,-252"/>
<text text-anchor="middle" x="293" y="-229.8" font-family="Times,serif" font-size="14.00" fill="#000000">AppModule</text>
</g>
<!-- AdvertisementsComponent&#45;&gt;AppModule -->
<g id="edge1" class="edge">
<title>AdvertisementsComponent&#45;&gt;AppModule</title>
<path fill="none" stroke="#000000" d="M516,-187.1061C516,-206.3391 516,-234 516,-234 516,-234 344.683,-234 344.683,-234"/>
<polygon fill="#000000" stroke="#000000" points="344.683,-230.5001 334.683,-234 344.683,-237.5001 344.683,-230.5001"/>
</g>
<!-- AppComponent -->
<g id="node2" class="node">
<title>AppComponent</title>
<polygon fill="#ffffb3" stroke="#000000" points="413.9399,-187 308.0601,-187 308.0601,-151 413.9399,-151 413.9399,-187"/>
<text text-anchor="middle" x="361" y="-164.8" font-family="Times,serif" font-size="14.00" fill="#000000">AppComponent</text>
</g>
<!-- AppComponent&#45;&gt;AppModule -->
<g id="edge2" class="edge">
<title>AppComponent&#45;&gt;AppModule</title>
<path fill="none" stroke="#000000" d="M321.5544,-187.1061C321.5544,-187.1061 321.5544,-205.991 321.5544,-205.991"/>
<polygon fill="#000000" stroke="#000000" points="318.0544,-205.9909 321.5544,-215.991 325.0544,-205.991 318.0544,-205.9909"/>
</g>
<!-- ProductsComponent -->
<g id="node3" class="node">
<title>ProductsComponent</title>
<polygon fill="#ffffb3" stroke="#000000" points="290.3258,-187 159.6742,-187 159.6742,-151 290.3258,-151 290.3258,-187"/>
<text text-anchor="middle" x="225" y="-164.8" font-family="Times,serif" font-size="14.00" fill="#000000">ProductsComponent</text>
</g>
<!-- ProductsComponent&#45;&gt;AppModule -->
<g id="edge5" class="edge">
<title>ProductsComponent&#45;&gt;AppModule</title>
<path fill="none" stroke="#000000" d="M270.6673,-187.1061C270.6673,-187.1061 270.6673,-205.991 270.6673,-205.991"/>
<polygon fill="#000000" stroke="#000000" points="267.1673,-205.9909 270.6673,-215.991 274.1673,-205.991 267.1673,-205.9909"/>
</g>
<!-- RatingComponent -->
<g id="node4" class="node">
<title>RatingComponent</title>
<polygon fill="#ffffb3" stroke="#000000" points="142.1653,-187 23.8347,-187 23.8347,-151 142.1653,-151 142.1653,-187"/>
<text text-anchor="middle" x="83" y="-164.8" font-family="Times,serif" font-size="14.00" fill="#000000">RatingComponent</text>
</g>
<!-- RatingComponent&#45;&gt;AppModule -->
<g id="edge6" class="edge">
<title>RatingComponent&#45;&gt;AppModule</title>
<path fill="none" stroke="#000000" d="M83,-187.1061C83,-206.3391 83,-234 83,-234 83,-234 241.2597,-234 241.2597,-234"/>
<polygon fill="#000000" stroke="#000000" points="241.2597,-237.5001 251.2597,-234 241.2596,-230.5001 241.2597,-237.5001"/>
</g>
<!-- AppComponent  -->
<g id="node8" class="node">
<title>AppComponent </title>
<polygon fill="#80b1d3" stroke="#000000" points="347.439,-317 238.561,-317 238.561,-281 347.439,-281 347.439,-317"/>
<text text-anchor="middle" x="293" y="-294.8" font-family="Times,serif" font-size="14.00" fill="#000000">AppComponent </text>
</g>
<!-- AppModule&#45;&gt;AppComponent  -->
<g id="edge7" class="edge">
<title>AppModule&#45;&gt;AppComponent </title>
<path fill="none" stroke="#000000" stroke-dasharray="1,5" d="M293,-252.1061C293,-252.1061 293,-270.991 293,-270.991"/>
<polygon fill="#000000" stroke="#000000" points="289.5001,-270.9909 293,-280.991 296.5001,-270.991 289.5001,-270.9909"/>
</g>
<!-- ProductService -->
<g id="node6" class="node">
<title>ProductService</title>
<ellipse fill="#fdb462" stroke="#000000" cx="446" cy="-104" rx="70.0616" ry="18"/>
<text text-anchor="middle" x="446" y="-99.8" font-family="Times,serif" font-size="14.00" fill="#000000">ProductService</text>
</g>
<!-- ProductService&#45;&gt;AppComponent -->
<g id="edge3" class="edge">
<title>ProductService&#45;&gt;AppComponent</title>
<path fill="none" stroke="#000000" d="M394.8444,-116.5327C394.8444,-116.5327 394.8444,-140.8507 394.8444,-140.8507"/>
<polygon fill="#000000" stroke="#000000" points="391.3445,-140.8506 394.8444,-150.8507 398.3445,-140.8507 391.3445,-140.8506"/>
</g>
<!-- AdvertisementService -->
<g id="node7" class="node">
<title>AdvertisementService</title>
<ellipse fill="#fdb462" stroke="#000000" cx="261" cy="-104" rx="96.6849" ry="18"/>
<text text-anchor="middle" x="261" y="-99.8" font-family="Times,serif" font-size="14.00" fill="#000000">AdvertisementService</text>
</g>
<!-- AdvertisementService&#45;&gt;AppComponent -->
<g id="edge4" class="edge">
<title>AdvertisementService&#45;&gt;AppComponent</title>
<path fill="none" stroke="#000000" d="M333.0614,-116.226C333.0614,-116.226 333.0614,-140.683 333.0614,-140.683"/>
<polygon fill="#000000" stroke="#000000" points="329.5615,-140.683 333.0614,-150.683 336.5615,-140.683 329.5615,-140.683"/>
</g>
</g>
</svg>
